<svg viewBox="0 0 512 512" xmlns="http://www.w3.org/2000/svg" xmlns:xlink="http://www.w3.org/1999/xlink"><linearGradient id="a" gradientTransform="matrix(1 0 0 -1 0 -9462)" gradientUnits="userSpaceOnUse" x1="0" x2="512" y1="-9718" y2="-9718"><stop offset="0" stop-color="#00f1ff"/><stop offset=".231" stop-color="#00d8ff"/><stop offset=".5138" stop-color="#00c0ff"/><stop offset=".7773" stop-color="#00b2ff"/><stop offset="1" stop-color="#00adff"/></linearGradient><path d="m512 256c0 141.386719-114.613281 256-256 256s-256-114.613281-256-256 114.613281-256 256-256 256 114.613281 256 256zm0 0" fill="url(#a)"/><g fill="#fff"><path d="m123.847656 170.195312c-22.523437 0-40.847656-18.324218-40.847656-40.847656 0-22.523437 18.324219-40.847656 40.847656-40.847656 22.523438 0 40.847656 18.324219 40.847656 40.847656 0 8.285156-6.714843 15-15 15-8.285156 0-15-6.714844-15-15 0-5.980468-4.867187-10.847656-10.847656-10.847656-5.980468 0-10.847656 4.867188-10.847656 10.847656 0 5.980469 4.867188 10.847656 10.847656 10.847656 8.285156 0 15 6.714844 15 15 0 8.285157-6.714844 15-15 15zm0 0"/><path d="m304.28125 423.5c-67.855469 0-123.0625-55.203125-123.0625-123.0625v-88.878906c0-67.855469 55.207031-123.058594 123.0625-123.058594 48.503906 0 92.632812 28.625 112.414062 72.925781 3.378907 7.566407-.015624 16.4375-7.578124 19.8125-7.566407 3.378907-16.4375-.015625-19.8125-7.578125-14.964844-33.507812-48.339844-55.160156-85.023438-55.160156-51.3125 0-93.0625 41.746094-93.0625 93.0625v88.878906c0 51.3125 41.75 93.058594 93.0625 93.058594 36.6875 0 70.058594-21.652344 85.023438-55.160156 3.375-7.5625 12.246093-10.957032 19.8125-7.578125 7.5625 3.378906 10.957031 12.246093 7.578124 19.8125-19.78125 44.300781-63.910156 72.925781-112.414062 72.925781zm0 0"/></g></svg>