<?xml version="1.0" standalone="no"?>
<!DOCTYPE svg PUBLIC "-//W3C//DTD SVG 20010904//EN"
 "http://www.w3.org/TR/2001/REC-SVG-20010904/DTD/svg10.dtd">
<svg version="1.0" xmlns="http://www.w3.org/2000/svg"
 width="307.000000pt" height="296.000000pt" viewBox="0 0 307.000000 296.000000"
 preserveAspectRatio="xMidYMid meet">

<g transform="translate(0.000000,296.000000) scale(0.100000,-0.100000)"
fill="#000000" stroke="none">
<path d="M1541 2416 c-8 -9 -11 -92 -9 -281 3 -237 5 -269 20 -278 12 -8 21
-7 32 2 14 12 16 50 16 286 0 240 -2 274 -16 279 -23 9 -30 8 -43 -8z"/>
<path d="M1392 2408 c-9 -9 -12 -88 -12 -294 0 -301 2 -314 50 -299 20 6 20
13 20 294 0 287 -3 311 -35 311 -6 0 -16 -5 -23 -12z"/>
<path d="M1692 2408 c-9 -9 -12 -86 -12 -284 0 -291 2 -304 50 -289 20 6 20
13 20 290 0 249 -2 284 -16 289 -22 8 -28 8 -42 -6z"/>
<path d="M1841 2376 c-8 -9 -11 -99 -9 -307 l3 -294 30 0 30 0 3 299 c2 305 1
315 -34 316 -6 0 -17 -6 -23 -14z"/>
<path d="M1241 2366 c-8 -9 -11 -107 -9 -337 l3 -324 30 0 30 0 3 329 c2 336
1 345 -34 346 -6 0 -17 -6 -23 -14z"/>
<path d="M1987 2313 c-13 -12 -8 -368 5 -381 20 -20 48 -14 58 14 13 34 13
330 0 355 -10 18 -50 26 -63 12z"/>
<path d="M1085 2288 c-3 -7 -4 -382 -3 -833 l3 -820 30 0 30 0 0 830 0 830
-28 3 c-16 2 -29 -2 -32 -10z"/>
<path d="M2141 2226 c-7 -9 -11 -42 -9 -88 l3 -73 30 0 30 0 3 79 c2 57 -1 82
-10 87 -19 13 -34 11 -47 -5z"/>
<path d="M941 2166 c-8 -9 -10 -203 -9 -706 3 -634 4 -694 20 -703 12 -8 21
-7 32 2 14 12 16 86 16 705 0 525 -3 695 -12 704 -16 16 -33 15 -47 -2z"/>
<path d="M791 2006 c-8 -9 -10 -161 -9 -546 3 -485 5 -534 20 -543 12 -8 21
-7 32 2 14 12 16 72 16 545 0 540 -1 556 -36 556 -6 0 -17 -6 -23 -14z"/>
<path d="M642 1708 c-9 -9 -12 -77 -12 -244 0 -199 2 -233 16 -245 11 -9 20
-10 32 -2 15 9 17 38 20 243 2 232 -1 260 -32 260 -7 0 -17 -5 -24 -12z"/>
<path d="M1237 1224 c-4 -4 -7 -152 -7 -329 0 -282 2 -324 16 -336 11 -9 20
-10 32 -2 15 9 17 43 17 339 l0 329 -25 3 c-14 2 -29 0 -33 -4z"/>
<path d="M1847 1159 c-15 -9 -17 -36 -17 -303 0 -314 2 -326 50 -311 20 6 20
13 20 305 0 276 -1 300 -18 309 -11 6 -24 6 -35 0z"/>
<path d="M1386 1105 c-3 -9 -6 -142 -6 -295 0 -241 2 -279 16 -291 11 -9 20
-10 32 -2 15 9 17 41 17 304 l0 294 -26 3 c-17 2 -29 -3 -33 -13z"/>
<path d="M1692 1088 c-9 -9 -12 -86 -12 -284 0 -291 2 -304 50 -289 20 6 20
13 20 290 0 249 -2 284 -16 289 -22 8 -28 8 -42 -6z"/>
<path d="M1542 1068 c-9 -9 -12 -85 -12 -279 0 -231 2 -268 16 -280 11 -9 20
-10 32 -2 15 9 17 41 20 278 2 267 -1 295 -32 295 -7 0 -17 -5 -24 -12z"/>
<path d="M1991 996 c-8 -9 -11 -70 -9 -197 l3 -184 24 -3 c45 -7 51 18 51 189
0 87 -4 169 -10 183 -10 29 -40 35 -59 12z"/>
<path d="M2147 869 c-14 -8 -17 -24 -17 -83 0 -80 13 -103 50 -91 18 6 20 15
20 85 0 66 -3 81 -18 89 -11 6 -24 6 -35 0z"/>
</g>
</svg>
